# xmcd CD database file
#
# Track frame offsets:
#	150
#	21230
#	35813
#	57665
#	81840
#	102500
#	115753
#	135195
#	153690
#	180828
#	200493
#	226988
#
# Disc length: 3188 seconds
#
# Revision: 0
# Processed by: cddbd v1.5.2PL0 Copyright (c) Steve Scherf et al.
# Submitted via: CDex 1.51
#
DISCID=9d0c720c
DTITLE=Robert Hicks - New Standards
DYEAR=1900
DGENRE=Jazz
TTITLE0=You'd Be So Nice To Come Horme To
TTITLE1=Let's Fall In Love
TTITLE2=I Get A Kick Out Of You
TTITLE3=Dom't Worry 'bout Me
TTITLE4=They All Laughed
TTITLE5=Carambola
TTITLE6=Along The Navajo Trail
TTITLE7=The Song Is You
TTITLE8=Moonlight In Vermont
TTITLE9=Carioca
TTITLE10=Early Autumn
TTITLE11=I Didn't Like It The First Time (The Spinach Song)
EXTD=
EXTT0=
EXTT1=
EXTT2=
EXTT3=
EXTT4=
EXTT5=
EXTT6=
EXTT7=
EXTT8=
EXTT9=
EXTT10=
EXTT11=
PLAYORDER=
